<?xml version="1.0" encoding="UTF-8"?>
<svg xmlns="http://www.w3.org/2000/svg" xmlns:xlink="http://www.w3.org/1999/xlink" width="16pt" height="13pt" viewBox="0 0 16 13" version="1.1">
<g id="surface1">
<path style=" stroke:none;fill-rule:nonzero;fill:rgb(99.215686%,98.431373%,98.431373%);fill-opacity:1;" d="M 11.839844 8.613281 L 11.707031 8.410156 C 11.429688 8 11.101562 7.628906 10.734375 7.296875 L 10.265625 6.890625 C 10.222656 6.851562 10.222656 6.792969 10.246094 6.738281 L 10.871094 5.914062 C 10.980469 5.792969 11.054688 5.667969 11.128906 5.539062 L 11.664062 4.613281 C 11.765625 4.4375 11.757812 4.253906 11.652344 4.101562 C 11.554688 3.945312 11.371094 3.847656 11.171875 3.847656 L 10.011719 3.847656 C 10.007812 3.847656 10.007812 3.847656 10.007812 3.847656 C 9.761719 3.847656 9.539062 3.976562 9.449219 4.1875 L 9.320312 4.4375 C 9.007812 5.117188 8.570312 5.710938 8.039062 6.242188 L 8.039062 4.351562 C 8.039062 4.066406 7.789062 3.847656 7.496094 3.847656 L 5.847656 3.847656 C 5.578125 3.847656 5.359375 4.046875 5.359375 4.300781 C 5.359375 4.390625 5.386719 4.476562 5.445312 4.566406 L 5.570312 4.714844 C 5.671875 4.863281 5.734375 5.03125 5.734375 5.203125 L 5.734375 6.597656 C 5.535156 6.378906 5.285156 6.085938 5.074219 5.738281 C 4.753906 5.21875 4.523438 4.613281 4.417969 4.289062 C 4.320312 4.023438 4.054688 3.847656 3.75 3.847656 L 2.574219 3.847656 C 2.394531 3.847656 2.238281 3.90625 2.15625 4.042969 C 2.042969 4.15625 2.023438 4.3125 2.066406 4.46875 L 2.28125 5.179688 C 2.417969 5.625 2.601562 6.0625 2.839844 6.464844 C 2.902344 6.589844 3.070312 6.636719 3.203125 6.566406 C 3.328125 6.507812 3.390625 6.359375 3.320312 6.234375 C 3.101562 5.855469 2.929688 5.453125 2.800781 5.050781 L 2.589844 4.351562 L 3.75 4.351562 C 3.820312 4.351562 3.878906 4.390625 3.898438 4.4375 C 4.015625 4.769531 4.257812 5.421875 4.59375 5.988281 C 4.878906 6.449219 5.234375 6.832031 5.464844 7.066406 C 5.597656 7.210938 5.804688 7.257812 5.988281 7.183594 C 6.167969 7.117188 6.285156 6.964844 6.285156 6.777344 L 6.285156 5.203125 C 6.285156 4.921875 6.183594 4.648438 6.007812 4.417969 L 5.941406 4.351562 L 7.496094 4.351562 L 7.496094 6.363281 C 7.496094 6.511719 7.578125 6.644531 7.707031 6.722656 C 7.84375 6.800781 8.015625 6.816406 8.15625 6.761719 L 8.273438 6.707031 C 8.324219 6.683594 8.367188 6.652344 8.40625 6.617188 C 8.996094 6.035156 9.464844 5.375 9.816406 4.644531 L 9.9375 4.390625 C 9.964844 4.363281 9.984375 4.351562 10.007812 4.351562 L 11.171875 4.351562 C 11.175781 4.351562 11.179688 4.351562 11.195312 4.359375 C 11.199219 4.363281 11.195312 4.371094 11.195312 4.371094 L 10.652344 5.296875 C 10.582031 5.410156 10.515625 5.519531 10.433594 5.625 L 9.804688 6.453125 C 9.617188 6.707031 9.652344 7.039062 9.890625 7.261719 L 10.351562 7.660156 C 10.691406 7.953125 10.988281 8.296875 11.238281 8.664062 L 11.371094 8.878906 C 11.371094 8.886719 11.378906 8.902344 11.371094 8.917969 C 11.355469 8.9375 11.34375 8.9375 11.335938 8.9375 L 10.324219 8.9375 C 10.199219 8.9375 10.070312 8.890625 9.988281 8.804688 L 8.972656 7.839844 C 8.742188 7.621094 8.4375 7.460938 8.101562 7.402344 C 7.960938 7.371094 7.808594 7.402344 7.679688 7.496094 C 7.566406 7.582031 7.496094 7.707031 7.496094 7.851562 L 7.496094 8.796875 C 7.496094 8.871094 7.421875 8.9375 7.339844 8.9375 C 6.554688 8.9375 5.785156 8.695312 5.167969 8.269531 C 4.917969 8.082031 4.679688 7.886719 4.460938 7.679688 C 4.359375 7.582031 4.183594 7.582031 4.070312 7.675781 C 3.96875 7.78125 3.96875 7.933594 4.070312 8.035156 C 4.308594 8.261719 4.566406 8.464844 4.832031 8.65625 C 5.550781 9.167969 6.441406 9.4375 7.339844 9.4375 C 7.71875 9.4375 8.039062 9.148438 8.039062 8.796875 L 8.039062 7.90625 C 8.253906 7.949219 8.4375 8.054688 8.589844 8.191406 L 9.605469 9.15625 C 9.789062 9.335938 10.054688 9.4375 10.324219 9.4375 L 11.335938 9.4375 C 11.546875 9.4375 11.75 9.335938 11.847656 9.167969 C 11.953125 8.988281 11.949219 8.78125 11.839844 8.613281 Z M 11.839844 8.613281 "/>
<path style=" stroke:none;fill-rule:nonzero;fill:rgb(99.215686%,98.431373%,98.431373%);fill-opacity:1;" d="M 3.8125 6.972656 C 3.722656 6.863281 3.542969 6.832031 3.433594 6.910156 C 3.308594 6.996094 3.277344 7.148438 3.363281 7.265625 L 3.597656 7.117188 L 3.363281 7.265625 C 3.425781 7.335938 3.507812 7.375 3.597656 7.375 C 3.644531 7.375 3.707031 7.355469 3.75 7.328125 C 3.878906 7.25 3.898438 7.085938 3.8125 6.972656 Z M 3.8125 6.972656 "/>
<path style=" stroke:none;fill-rule:nonzero;fill:rgb(99.215686%,98.431373%,98.431373%);fill-opacity:1;" d="M 5.578125 11.15625 L 3.355469 11.15625 C 3.207031 11.15625 3.085938 11.269531 3.085938 11.40625 C 3.085938 11.546875 3.207031 11.660156 3.355469 11.660156 L 5.578125 11.660156 C 5.730469 11.660156 5.847656 11.546875 5.847656 11.40625 C 5.847656 11.269531 5.730469 11.15625 5.578125 11.15625 Z M 5.578125 11.15625 "/>
<path style=" stroke:none;fill-rule:nonzero;fill:rgb(99.215686%,98.431373%,98.431373%);fill-opacity:1;" d="M 6.828125 11.15625 L 6.824219 11.15625 C 6.664062 11.15625 6.539062 11.269531 6.539062 11.40625 C 6.539062 11.546875 6.664062 11.660156 6.824219 11.660156 L 6.828125 11.660156 C 6.96875 11.660156 7.085938 11.546875 7.085938 11.40625 C 7.085938 11.269531 6.96875 11.15625 6.828125 11.15625 Z M 6.828125 11.15625 "/>
<path style=" stroke:none;fill-rule:nonzero;fill:rgb(99.215686%,98.431373%,98.431373%);fill-opacity:1;" d="M 12.148438 0 L 1.800781 0 C 0.808594 0 0 0.746094 0 1.660156 L 0 11.203125 C 0 12.121094 0.808594 12.863281 1.800781 12.863281 L 12.148438 12.863281 C 13.132812 12.863281 13.9375 12.121094 13.9375 11.203125 L 13.9375 1.660156 C 13.9375 0.746094 13.132812 0 12.148438 0 Z M 13.398438 11.203125 C 13.398438 11.84375 12.84375 12.363281 12.148438 12.363281 L 1.800781 12.363281 C 1.105469 12.363281 0.546875 11.84375 0.546875 11.203125 L 0.546875 1.660156 C 0.546875 1.019531 1.105469 0.507812 1.800781 0.507812 L 12.148438 0.507812 C 12.84375 0.507812 13.398438 1.019531 13.398438 1.660156 Z M 13.398438 11.203125 "/>
</g>
</svg>
